<svg xmlns="http://www.w3.org/2000/svg" width="161.7" height="166.4" viewBox="0 0 152 156">
  <path d="M-396 531c0 3 0 9 3 11 2 1 5-1 8-2l5-4 10-1 4 3 3-1 4 1 4 2 4 1 4 1 3-1 4-2 6 1-6 1-7 2c-3 0-5-2-9-1h-3c-1 2 3 5 4 6h6l4-2h4l4 1h-3l-4 1-7 2-5-2-3-1-1-3-6-4-4-1h-4l-2 2 3 4 5 2 2 2h5l4 1 3 3 1 3 7 4s-6-1-8-3l-2-3-2-2-3-2-4 1c-3-1-7-6-9-4-1 1 0 3 1 5l3 2c2 1 5 1 7 3l4 3c-1 3 1 4 3 5l1 4-4-4-3-6c-2-1-6-4-8-3-1 2 2 3 3 5l3 4 1 4c-1 3 0 5-2 7v-5l-1-6c0-2-2-3-3-5l-4-2-1-4-3-4-3-1-7 1c-1 0-3-2-4-1-1 2 2 4 3 6 2 2 5 2 7 5l2 8 2 3 5 1 5 5c-2-2-3-4-6-4l1 7-2-7c-1-1-4-1-5-3l-2-3-3-5-1-1c-2 0-1 3-2 5l-2 1v2l2 4 2 4-2 6-3 4s3-5 3-8l-1-4-3-3-1-4c0-2 3-3 4-5l-1-3-3-3-3-2-3 2-3 3-1 4c0 2 0 7 2 9 5 2 7 14 7 14s-4-12-8-11c-3 1 1 12 1 12l-3-9v-8l-2-4c-2 0-3 2-5 3l-2 4 1 5 1 10-1-7c1-1-2-6-2-7l1-5 2-4 1-2 3-3 1-4c0-3 0-7-3-7-2-1-3 4-5 6l-5 5-3 1-1 4 1 3c1 1 3 3 2 4-2 4-5 13-4 14l1-9 1-6-3-6-1-2c-2-1-4 1-6 2l-2 3-2 4-2 5c-1 2-5 3-5 3l5-5c2-2 0-6 2-8l5-3v-3c-2-1-5 0-7 2-2 0-3 2-4 3-2 1-4 0-5 3-2 3-9 4-9 4s7-2 6-5c-2-4-11 0-11 0s8-5 15-2c1 1 3-2 4-3l6-3c3-1 6 0 9-2 2-2 5 1 6 0 2-1 2-3 2-4 1-1 2-3 1-4-2-2-6 1-8 1l-9 3h-8l-4 1-4 3c-3 2-6 2-9 2h-10l10-1 6-1c2-1 4-2 4-4 0-3-2-5-4-6l-8-1-6 1-2 1-5 6s6-6 4-8c-1-1-5 2-5 2s3-3 5-3h14l11 4c2 0 5 2 7 1 4 0 8-1 10-3l1-3c-1-5-9-3-14-3l-8 1-9-1-8-1c-2 0-4 0-6 2l-7 6 7-8c2-1 4-2 6-1h8c2-1 4 1 6 1s5 1 5-1c0-4-8-2-11-4s-6-3-10-2h-5c-5-1-9 7-9 7l5-8h3l6-1c3 1 5 2 8 1 3 0 6 5 11 4l4 2 11 2h11l5-2 3-4 1-3-2-5-5-5-4-4c-3-2-6-2-10-3l-15-3h-6l-7 1-5-2-13-8s11 7 18 8c3 1 6-1 10-1l10 1 14 2c4 2 8 11 11 8s-2-7-5-10l-10-8c-3-2-7-2-10-3h-13l-9-2-7 1-7-2 6 1 7-1 8 2h10l13 1 7 2 7 7 3 3 1 1v-5l-5-8-10-6-8-2c-2-1-4-3-7-3l-13 2 7-3h5c5 0 12 7 14 3 1-2-4-4-4-6-1-3-8-4-11-5l-8-1h-4l-7 2 5-2 4-1 7 1c2 0 7 3 7 0-1-2-18-10-18-10s13 5 17 9l7 4 4 6 3 2 6 3 5 3 4 4c2 2 4 6 6 5v-5c-1-3-4-4-6-6l-5-5-8-8-6-8-7-6-10-3s8 1 11 3l7 5c2 2 3 8 6 7 2-1-1-6-2-8l-2-6-3-5-5-5 7 5 3 4 2 7 2 8a24 24 0 0 0 8 10c1 1 2 3 3 2 2-1-3-5-4-7l1-8-1-4 1-3-1-3-7-8-2-6 4 7 4 3 4 6v10c3 0 3-4 4-6l5-7 2-6v-9l1 7-1 6-6 9-4 9-1 3 2 5 3 5 2 2h2c2 0 3-2 4-3l2-3c1-2-1-4-1-7v-8l3-9 1-1 4-5 1-3 2-6-2 10-4 5-2 4-1 5 1 6 1 4c3 0 4-5 5-7l3-5 4-7 4-4 3-4 5-7-6 11-5 5-2 3-2 5v1c2 2 4-2 7-3l5-2 5-1 9-7-8 7c-2 2-4 2-7 3l-6 2-4 2-4 3-3 5-4 8c0 2-2 4-1 5l2 1 4-2 3-1 5-5c1-2 2-5 4-6l5-1 6-1 5-2 4-5 6-8-8 13c-2 1-5 1-4 2 0 2 3 1 5 2h9l9-2 2-2-10 5-7 1-9-1-5-1-4 1-2 2-7 6-3 5-3 2-2 2 3 1a36 36 0 0 0 12 0l6-2 5-4 6-6-7 9-4 2c1 3 7 0 10-1l10-5 2-3c6 0 14-3 14-3l-13 5c-2 0-3 2-4 3l-4 2-5 3-12 2-6 1-8 1-1 2-1 4 1 3c3 3 8-1 13-1h15l8-4 3-6 8-4 7-2-9 4-5 5-6 5c-1 2-4 3-6 4h-10l-10 1a24 24 0 0 0-9 6l-3 5z" style="fill:#000;fill-rule:evenodd;stroke:#000;stroke-width:1px;stroke-linecap:butt;stroke-linejoin:miter;stroke-opacity:1" transform="matrix(.995 0 0 1.066 482 -472)"/>
  <path d="m-470 512-6 2-1 5 5-1c2-2 2-6 2-6zM-484 504h6c2 0 5 4 5 4s-5 2-7 1l-4-5zM-471 502v4c0 2 4 4 4 4l-1-5-3-3zM-464 506l4-2 2-3-4 1-2 4zM-456 505s-2 2-1 4l2 3 2-4-3-3zM-440 505v4l3 3v-4c0-2-3-3-3-3zM-450 507l1-4 5-2-1 4-5 2zM-438 494v4l4 3-1-4-3-3zM-483 494l2 5h5l-2-4-5-1zM-472 490l2 5c1 2 5 3 5 3s0-4-2-5c-1-2-5-3-5-3zM-453 498l-1-3c0-2-3-4-3-4l1 6 3 1z" style="fill:none;fill-rule:evenodd;stroke:#000;stroke-width:1px;stroke-linecap:butt;stroke-linejoin:miter;stroke-opacity:1" transform="matrix(.995 0 0 1.066 482 -472)"/>
  <path d="m-463 491 3-2 4 2-3 3-4-3zM-448 495v-3l3-2v4l-3 1zM-456 483l1 4 4 2-1-4-4-2zM-464 487l4-3 2-4-5 2-1 5zM-477 482l5-2 4 2-4 2c-2 1-5-2-5-2zM-432 485v4l1 4s3-4 2-5c0-2-3-3-3-3zM-468 472l4 3 2 4s-4-1-5-3l-1-4zM-465 467l5 2 1 4-5-1-1-5zM-444 474l1 3v3l-2-3 1-3zM-440 478h4l4 2-4 2-4-4zm-15-8 6-1h7s-4 4-7 4l-6-3zM-459 461h5l4 4h-6l-3-4zM-448 458l1 3v5l-2-4 1-4zM-444 462l3-2 5 1-4 2-4-1zM-438 465l3 2v5l-3-4v-3zM-424 474l2 6-2 6-2-7 2-5zM-437 455l3-4 1 5c0 2-3 5-3 5l-1-6zM-445 451l5 2 2 5-6-1-1-6zM-428 464l5 1 4 4-5 1c-2-1-4-6-4-6zM-428 454s2-3 1-5l-5-4v5l4 4zM-420 449v6c0 3-4 6-4 6v-7l4-5zm3 13 4 2 3 5-5-2-2-5zM-417 456h6l5 5s-5 1-8-1l-3-4zM-415 443l6 3 3 6-7-2c-2-2-2-7-2-7zM-399 447h-5l-2 4s3 2 5 1l2-5zM-411 475l6-1-3 4-7 2 4-5zm-3 17 6-4 1-7-5 4-2 7zM-394 471l-4 2c-2 1-3 6-3 6l6-3 1-5zM-405 464h3l1 4-3-1-1-3zM-400 455l-2 5c0 2 4 4 4 4v-5l-2-4zM-391 447s-4 2-4 4c-1 2 1 7 1 7s4-2 5-5l-2-6zM-394 466h3l2 4-3-1-2-3zM-390 460l3 3v3l-3-2v-4zM-386 453l4 3v5l-4-2v-6zM-373 449s-4 1-5 3v4l4-1c2-2 1-6 1-6zM-382 466l-2 4 2 3 2-3-2-4zM-374 462l-2 3v6s4-3 4-5l-2-4zM-396 487s3-3 5-3h5l-4 3h-6zM-383 478l2 3-2 5-2-4 2-4zM-376 477l2 3-2 5-2-4 2-4zM-367 463c1-2 6-2 6-2l-3 6-5 2s0-5 2-6zM-371 471l3-2 4 2-4 1-3-1zM-369 473l2 2v7s-4-4-4-6l2-3zM-354 464s-5 2-6 4v5s4 0 5-2l1-7zM-360 486l4-4v-4s-3 1-3 3l-1 5zM-352 486s2-5 4-6h7s-2 5-4 6h-7zM-380 492l1 7-6 6c1 1 1-4 1-8-1-2 4-5 4-5zM-375 493l3 2 1 5s-3-1-3-3l-1-4zM-371 489l3 2 1 5-3-3-1-4zM-365 494v-4c2-2 6-1 6-1l-2 4-4 1zM-367 497l5-1 3 2-3 1-5-2zM-354 489s2 1 2 3c1 1-1 5-1 5l-3-4 2-4zM-348 494l1-4c1-2 6-1 6-1l-2 4-5 1zM-383 507l5 3 2 3-5-1-2-5zM-369 509l1 4-2 5-2-5c0-2 3-4 3-4zM-359 503l2 6-2 6-2-6c-1-1 2-6 2-6zM-346 497l-3 2v6s3-2 3-4v-4zM-342 502l2-4c2-1 7 1 7 1l-4 4c-2 1-5-1-5-1zM-352 511l5-2 7 1s-4 3-7 3l-5-2z" style="fill:none;fill-rule:evenodd;stroke:#000;stroke-width:1px;stroke-linecap:butt;stroke-linejoin:miter;stroke-opacity:1" transform="matrix(.995 0 0 1.066 482 -472)"/>
</svg>